<?xml version="1.0" encoding="utf-8"?>
<svg id="visual" viewBox="0 0 1920 1080" width="1920" height="1080" version="1.1" xmlns="http://www.w3.org/2000/svg">
  <rect width="1920" height="1080" fill="#001220"/>
  <g style="" transform="matrix(-1.420988, 0, 0, -0.963764, 2542.720703, 1035.509888)">
    <g transform="translate(1579 178)">
      <path d="M179 -53.6C205.4 23 181.8 120.5 122.4 162.2C63 203.8 -32.4 189.8 -96.5 141.2C-160.7 92.6 -193.7 9.5 -172.4 -60.2C-151.1 -129.9 -75.6 -186 0.4 -186.2C76.3 -186.3 152.6 -130.3 179 -53.6Z" stroke="#F7760E" fill="none" stroke-width="20"/>
    </g>
    <g transform="translate(568 220)">
      <path d="M114.7 -42.9C127.9 3.4 103.6 56.3 63.5 84.9C23.3 113.5 -32.8 117.9 -69.2 92.1C-105.6 66.4 -122.5 10.6 -107.7 -37.9C-92.9 -86.4 -46.4 -127.5 2.2 -128.2C50.8 -128.9 101.5 -89.2 114.7 -42.9Z" stroke="#F7760E" fill="none" stroke-width="20"/>
    </g>
    <g transform="translate(1532 822)">
      <path d="M191.2 -57.7C216.4 15.6 183.9 112 116.6 161C49.3 210.1 -52.9 211.8 -120.3 163.3C-187.7 114.9 -220.3 16.4 -194.5 -57.7C-168.6 -131.8 -84.3 -181.4 -0.7 -181.2C83 -181 166 -130.9 191.2 -57.7Z" stroke="#F7760E" fill="none" stroke-width="20"/>
    </g>
  </g>
</svg>