<svg id="visual" viewBox="0 0 1920 1080" width="1920" height="1080" xmlns="http://www.w3.org/2000/svg" xmlns:xlink="http://www.w3.org/1999/xlink" version="1.1"><rect x="0" y="0" width="1920" height="1080" fill="#001220"></rect><defs><linearGradient id="grad1_0" x1="43.8%" y1="0%" x2="100%" y2="100%"><stop offset="14.444444444444446%" stop-color="#fbae3c" stop-opacity="1"></stop><stop offset="85.55555555555554%" stop-color="#fbae3c" stop-opacity="1"></stop></linearGradient></defs><defs><linearGradient id="grad1_1" x1="43.8%" y1="0%" x2="100%" y2="100%"><stop offset="14.444444444444446%" stop-color="#fbae3c" stop-opacity="1"></stop><stop offset="85.55555555555554%" stop-color="#eb7458" stop-opacity="1"></stop></linearGradient></defs><defs><linearGradient id="grad1_2" x1="43.8%" y1="0%" x2="100%" y2="100%"><stop offset="14.444444444444446%" stop-color="#b84e6c" stop-opacity="1"></stop><stop offset="85.55555555555554%" stop-color="#eb7458" stop-opacity="1"></stop></linearGradient></defs><defs><linearGradient id="grad1_3" x1="43.8%" y1="0%" x2="100%" y2="100%"><stop offset="14.444444444444446%" stop-color="#b84e6c" stop-opacity="1"></stop><stop offset="85.55555555555554%" stop-color="#713c69" stop-opacity="1"></stop></linearGradient></defs><defs><linearGradient id="grad1_4" x1="43.8%" y1="0%" x2="100%" y2="100%"><stop offset="14.444444444444446%" stop-color="#2d2b4c" stop-opacity="1"></stop><stop offset="85.55555555555554%" stop-color="#713c69" stop-opacity="1"></stop></linearGradient></defs><defs><linearGradient id="grad1_5" x1="43.8%" y1="0%" x2="100%" y2="100%"><stop offset="14.444444444444446%" stop-color="#2d2b4c" stop-opacity="1"></stop><stop offset="85.55555555555554%" stop-color="#001220" stop-opacity="1"></stop></linearGradient></defs><defs><linearGradient id="grad2_0" x1="0%" y1="0%" x2="56.3%" y2="100%"><stop offset="14.444444444444446%" stop-color="#fbae3c" stop-opacity="1"></stop><stop offset="85.55555555555554%" stop-color="#fbae3c" stop-opacity="1"></stop></linearGradient></defs><defs><linearGradient id="grad2_1" x1="0%" y1="0%" x2="56.3%" y2="100%"><stop offset="14.444444444444446%" stop-color="#eb7458" stop-opacity="1"></stop><stop offset="85.55555555555554%" stop-color="#fbae3c" stop-opacity="1"></stop></linearGradient></defs><defs><linearGradient id="grad2_2" x1="0%" y1="0%" x2="56.3%" y2="100%"><stop offset="14.444444444444446%" stop-color="#eb7458" stop-opacity="1"></stop><stop offset="85.55555555555554%" stop-color="#b84e6c" stop-opacity="1"></stop></linearGradient></defs><defs><linearGradient id="grad2_3" x1="0%" y1="0%" x2="56.3%" y2="100%"><stop offset="14.444444444444446%" stop-color="#713c69" stop-opacity="1"></stop><stop offset="85.55555555555554%" stop-color="#b84e6c" stop-opacity="1"></stop></linearGradient></defs><defs><linearGradient id="grad2_4" x1="0%" y1="0%" x2="56.3%" y2="100%"><stop offset="14.444444444444446%" stop-color="#713c69" stop-opacity="1"></stop><stop offset="85.55555555555554%" stop-color="#2d2b4c" stop-opacity="1"></stop></linearGradient></defs><defs><linearGradient id="grad2_5" x1="0%" y1="0%" x2="56.3%" y2="100%"><stop offset="14.444444444444446%" stop-color="#001220" stop-opacity="1"></stop><stop offset="85.55555555555554%" stop-color="#2d2b4c" stop-opacity="1"></stop></linearGradient></defs><g transform="translate(1920, 0)"><path d="M0 702C-72.8 634.3 -145.6 566.6 -218.5 527.5C-291.4 488.5 -364.4 478.1 -442.6 442.6C-520.9 407.2 -604.5 346.6 -648.6 268.6C-692.7 190.7 -697.3 95.3 -702 0L0 0Z" fill="#131f37"></path><path d="M0 585C-60.7 528.6 -121.3 472.1 -182.1 439.6C-242.8 407.1 -303.7 398.4 -368.9 368.9C-434.1 339.3 -503.7 288.8 -540.5 223.9C-577.2 158.9 -581.1 79.5 -585 0L0 0Z" fill="#4d345e"></path><path d="M0 468C-48.5 422.9 -97.1 377.7 -145.7 351.7C-194.3 325.7 -242.9 318.7 -295.1 295.1C-347.3 271.5 -403 231.1 -432.4 179.1C-461.8 127.1 -464.9 63.6 -468 0L0 0Z" fill="#96446e"></path><path d="M0 351C-36.4 317.1 -72.8 283.3 -109.3 263.8C-145.7 244.2 -182.2 239.1 -221.3 221.3C-260.5 203.6 -302.2 173.3 -324.3 134.3C-346.3 95.3 -348.7 47.7 -351 0L0 0Z" fill="#d55e64"></path><path d="M0 234C-24.3 211.4 -48.5 188.9 -72.8 175.8C-97.1 162.8 -121.5 159.4 -147.5 147.5C-173.6 135.7 -201.5 115.5 -216.2 89.5C-230.9 63.6 -232.4 31.8 -234 0L0 0Z" fill="#f88f4a"></path><path d="M0 117C-12.1 105.7 -24.3 94.4 -36.4 87.9C-48.6 81.4 -60.7 79.7 -73.8 73.8C-86.8 67.9 -100.7 57.8 -108.1 44.8C-115.4 31.8 -116.2 15.9 -117 0L0 0Z" fill="#fbae3c"></path></g><g transform="translate(0, 1080)"><path d="M0 -702C98.2 -700 196.4 -698 268.6 -648.6C340.9 -599.1 387.2 -502.3 425 -425C462.8 -347.7 492 -289.9 536.8 -222.3C581.5 -154.8 641.8 -77.4 702 0L0 0Z" fill="#131f37"></path><path d="M0 -585C81.8 -583.3 163.7 -581.7 223.9 -540.5C284.1 -499.3 322.7 -418.6 354.1 -354.1C385.6 -289.7 410 -241.6 447.3 -185.3C484.6 -129 534.8 -64.5 585 0L0 0Z" fill="#4d345e"></path><path d="M0 -468C65.5 -466.7 130.9 -465.3 179.1 -432.4C227.3 -399.4 258.1 -334.9 283.3 -283.3C308.5 -231.8 328 -193.3 357.8 -148.2C387.7 -103.2 427.8 -51.6 468 0L0 0Z" fill="#96446e"></path><path d="M0 -351C49.1 -350 98.2 -349 134.3 -324.3C170.4 -299.6 193.6 -251.1 212.5 -212.5C231.4 -173.8 246 -145 268.4 -111.2C290.8 -77.4 320.9 -38.7 351 0L0 0Z" fill="#d55e64"></path><path d="M0 -234C32.7 -233.3 65.5 -232.7 89.5 -216.2C113.6 -199.7 129.1 -167.4 141.7 -141.7C154.3 -115.9 164 -96.6 178.9 -74.1C193.8 -51.6 213.9 -25.8 234 0L0 0Z" fill="#f88f4a"></path><path d="M0 -117C16.4 -116.7 32.7 -116.3 44.8 -108.1C56.8 -99.9 64.5 -83.7 70.8 -70.8C77.1 -57.9 82 -48.3 89.5 -37.1C96.9 -25.8 107 -12.9 117 0L0 0Z" fill="#fbae3c"></path></g></svg>