<?xml version="1.0" encoding="utf-8"?>
<svg id="visual" viewBox="0 0 1920 1080" width="1920" height="1080" version="1.1" xmlns="http://www.w3.org/2000/svg">
  <rect x="0" y="0" width="1920" height="1080" fill="#001220"/>
  <g transform="translate(0, 1080)">
    <path d="M0 -702C98.2 -700 196.4 -698 268.6 -648.6C340.9 -599.1 387.2 -502.3 425 -425C462.8 -347.7 492 -289.9 536.8 -222.3C581.5 -154.8 641.8 -77.4 702 0L0 0Z" fill="#131f37"/>
    <path d="M0 -585C81.8 -583.3 163.7 -581.7 223.9 -540.5C284.1 -499.3 322.7 -418.6 354.1 -354.1C385.6 -289.7 410 -241.6 447.3 -185.3C484.6 -129 534.8 -64.5 585 0L0 0Z" fill="#4d345e"/>
    <path d="M0 -468C65.5 -466.7 130.9 -465.3 179.1 -432.4C227.3 -399.4 258.1 -334.9 283.3 -283.3C308.5 -231.8 328 -193.3 357.8 -148.2C387.7 -103.2 427.8 -51.6 468 0L0 0Z" fill="#96446e"/>
    <path d="M0 -351C49.1 -350 98.2 -349 134.3 -324.3C170.4 -299.6 193.6 -251.1 212.5 -212.5C231.4 -173.8 246 -145 268.4 -111.2C290.8 -77.4 320.9 -38.7 351 0L0 0Z" fill="#d55e64"/>
    <path d="M0 -234C32.7 -233.3 65.5 -232.7 89.5 -216.2C113.6 -199.7 129.1 -167.4 141.7 -141.7C154.3 -115.9 164 -96.6 178.9 -74.1C193.8 -51.6 213.9 -25.8 234 0L0 0Z" fill="#f88f4a"/>
    <path d="M0 -117C16.4 -116.7 32.7 -116.3 44.8 -108.1C56.8 -99.9 64.5 -83.7 70.8 -70.8C77.1 -57.9 82 -48.3 89.5 -37.1C96.9 -25.8 107 -12.9 117 0L0 0Z" fill="#fbae3c"/>
  </g>
</svg>